<svg width="72" height="72" viewBox="0 0 72 72" fill="none" xmlns="http://www.w3.org/2000/svg">
<path d="M36 39.4375C37.8985 39.4375 39.4375 37.8985 39.4375 36C39.4375 34.1015 37.8985 32.5625 36 32.5625C34.1015 32.5625 32.5625 34.1015 32.5625 36C32.5625 37.8985 34.1015 39.4375 36 39.4375Z" fill="#E8445A"/>
<path d="M36 25C38.1756 25 40.3023 25.6451 42.1113 26.8538C43.9202 28.0625 45.3301 29.7805 46.1627 31.7905C46.9952 33.8005 47.2131 36.0122 46.7886 38.146C46.3642 40.2798 45.3165 42.2398 43.7782 43.7782C42.2398 45.3166 40.2798 46.3642 38.146 46.7886C36.0122 47.2131 33.8005 46.9952 31.7905 46.1627C29.7805 45.3301 28.0625 43.9202 26.8538 42.1113C25.6451 40.3023 25 38.1756 25 36" stroke="#E8445A" stroke-width="6" stroke-linecap="round"/>
<path d="M36 14C40.3512 14 44.6047 15.2903 48.2225 17.7077C51.8404 20.1251 54.6602 23.561 56.3253 27.581C57.9905 31.6009 58.4261 36.0244 57.5773 40.292C56.7284 44.5596 54.6331 48.4796 51.5563 51.5564C48.4796 54.6331 44.5596 56.7284 40.292 57.5773C36.0244 58.4262 31.6009 57.9905 27.581 56.3254C23.561 54.6602 20.1251 51.8404 17.7077 48.2225C15.2903 44.6047 14 40.3512 14 36" stroke="#1A1D2E" stroke-width="6" stroke-linecap="round"/>
<path opacity="0.35" d="M36 3C42.5268 3 48.907 4.93542 54.3338 8.5615C59.7606 12.1876 63.9903 17.3415 66.488 23.3714C68.9857 29.4014 69.6392 36.0366 68.3659 42.438C67.0926 48.8394 63.9496 54.7194 59.3345 59.3345C54.7194 63.9497 48.8393 67.0926 42.438 68.3659C36.0366 69.6392 29.4014 68.9857 23.3714 66.488C17.3415 63.9903 12.1876 59.7606 8.5615 54.3338C4.93542 48.907 3 42.5268 3 36" stroke="#E8445A" stroke-width="6" stroke-linecap="round"/>
</svg>
