<svg width="324" height="73" viewBox="0 0 324 73" fill="none" xmlns="http://www.w3.org/2000/svg">
<path d="M84.7926 58V14.3636H114.196V21.9702H94.0185V32.3679H112.683V39.9744H94.0185V50.3935H114.281V58H84.7926ZM151.872 25.2727L140.43 58H130.203L118.761 25.2727H128.349L135.146 48.6889H135.487L142.262 25.2727H151.872ZM170.377 58.6392C167.01 58.6392 164.113 57.9574 161.684 56.5938C159.269 55.2159 157.408 53.2699 156.101 50.7557C154.794 48.2273 154.141 45.2372 154.141 41.7855C154.141 38.419 154.794 35.4645 156.101 32.9219C157.408 30.3793 159.248 28.3977 161.62 26.9773C164.006 25.5568 166.804 24.8466 170.015 24.8466C172.174 24.8466 174.184 25.1946 176.044 25.8906C177.919 26.5724 179.553 27.6023 180.945 28.9801C182.351 30.358 183.445 32.0909 184.226 34.179C185.007 36.2528 185.398 38.6818 185.398 41.4659V43.9588H157.763V38.3338H176.854C176.854 37.027 176.57 35.8693 176.002 34.8608C175.434 33.8523 174.645 33.0639 173.637 32.4957C172.642 31.9134 171.485 31.6222 170.164 31.6222C168.786 31.6222 167.564 31.9418 166.499 32.581C165.448 33.206 164.624 34.0511 164.027 35.1165C163.431 36.1676 163.125 37.3395 163.111 38.6321V43.9801C163.111 45.5994 163.409 46.9986 164.006 48.1776C164.617 49.3565 165.476 50.2656 166.584 50.9048C167.692 51.544 169.006 51.8636 170.526 51.8636C171.534 51.8636 172.458 51.7216 173.296 51.4375C174.134 51.1534 174.851 50.7273 175.448 50.1591C176.044 49.5909 176.499 48.8949 176.811 48.071L185.206 48.625C184.78 50.642 183.907 52.4034 182.586 53.9091C181.279 55.4006 179.588 56.5653 177.515 57.4034C175.455 58.2273 173.076 58.6392 170.377 58.6392ZM200.398 39.0795V58H191.321V25.2727H199.972V31.0469H200.355C201.08 29.1435 202.294 27.6378 203.999 26.5298C205.703 25.4077 207.77 24.8466 210.199 24.8466C212.472 24.8466 214.453 25.3437 216.144 26.3381C217.834 27.3324 219.148 28.7528 220.086 30.5994C221.023 32.4318 221.492 34.6193 221.492 37.1619V58H212.415V38.7812C212.429 36.7784 211.918 35.2159 210.881 34.0938C209.844 32.9574 208.417 32.3892 206.598 32.3892C205.377 32.3892 204.297 32.652 203.36 33.1776C202.436 33.7031 201.712 34.4702 201.186 35.4787C200.675 36.473 200.412 37.6733 200.398 39.0795ZM246.053 25.2727V32.0909H226.344V25.2727H246.053ZM230.819 17.4318H239.896V47.9432C239.896 48.7812 240.023 49.4347 240.279 49.9034C240.535 50.358 240.89 50.6776 241.344 50.8622C241.813 51.0469 242.353 51.1392 242.964 51.1392C243.39 51.1392 243.816 51.1037 244.242 51.0327C244.668 50.9474 244.995 50.8835 245.222 50.8409L246.65 57.5952C246.195 57.7372 245.556 57.9006 244.732 58.0852C243.908 58.2841 242.907 58.4048 241.728 58.4474C239.54 58.5327 237.623 58.2415 235.975 57.5739C234.342 56.9062 233.07 55.8693 232.161 54.4631C231.252 53.0568 230.805 51.2812 230.819 49.1364V17.4318Z" fill="#1A1D2E"/>
<path d="M252.622 58V25.2727H261.699V58H252.622ZM257.182 21.054C255.832 21.054 254.675 20.6065 253.709 19.7116C252.757 18.8026 252.281 17.7159 252.281 16.4517C252.281 15.2017 252.757 14.1293 253.709 13.2344C254.675 12.3253 255.832 11.8707 257.182 11.8707C258.531 11.8707 259.682 12.3253 260.634 13.2344C261.599 14.1293 262.082 15.2017 262.082 16.4517C262.082 17.7159 261.599 18.8026 260.634 19.7116C259.682 20.6065 258.531 21.054 257.182 21.054ZM286.569 25.2727V32.0909H266.37V25.2727H286.569ZM270.994 58V22.9077C270.994 20.5355 271.456 18.5682 272.379 17.0057C273.316 15.4432 274.595 14.2713 276.214 13.4901C277.833 12.7088 279.673 12.3182 281.733 12.3182C283.125 12.3182 284.396 12.4247 285.547 12.6378C286.711 12.8509 287.578 13.0426 288.146 13.2131L286.527 20.0312C286.172 19.9176 285.731 19.8111 285.206 19.7116C284.694 19.6122 284.169 19.5625 283.629 19.5625C282.294 19.5625 281.363 19.875 280.838 20.5C280.312 21.1108 280.049 21.9702 280.049 23.0781V58H270.994ZM297.718 70.2727C296.567 70.2727 295.488 70.1804 294.479 69.9957C293.485 69.8253 292.661 69.6051 292.008 69.3352L294.053 62.5597C295.119 62.8864 296.077 63.0639 296.93 63.0923C297.796 63.1207 298.542 62.9219 299.167 62.4957C299.806 62.0696 300.325 61.3452 300.722 60.3224L301.255 58.9375L289.515 25.2727H299.06L305.836 49.3068H306.177L313.016 25.2727H322.626L309.906 61.5369C309.295 63.2983 308.464 64.8324 307.413 66.1392C306.376 67.4602 305.062 68.4759 303.471 69.1861C301.88 69.9105 299.962 70.2727 297.718 70.2727Z" fill="#E8445A"/>
<path d="M36 40.4375C37.8985 40.4375 39.4375 38.8985 39.4375 37C39.4375 35.1015 37.8985 33.5625 36 33.5625C34.1015 33.5625 32.5625 35.1015 32.5625 37C32.5625 38.8985 34.1015 40.4375 36 40.4375Z" fill="#E8445A"/>
<path d="M36 26C38.1756 26 40.3023 26.6451 42.1113 27.8538C43.9202 29.0625 45.3301 30.7805 46.1627 32.7905C46.9952 34.8005 47.2131 37.0122 46.7886 39.146C46.3642 41.2798 45.3165 43.2398 43.7782 44.7782C42.2398 46.3166 40.2798 47.3642 38.146 47.7886C36.0122 48.2131 33.8005 47.9952 31.7905 47.1627C29.7805 46.3301 28.0625 44.9202 26.8538 43.1113C25.6451 41.3023 25 39.1756 25 37" stroke="#E8445A" stroke-width="6" stroke-linecap="round"/>
<path d="M36 15C40.3512 15 44.6047 16.2903 48.2225 18.7077C51.8404 21.1251 54.6602 24.561 56.3253 28.581C57.9905 32.6009 58.4261 37.0244 57.5773 41.292C56.7284 45.5596 54.6331 49.4796 51.5563 52.5564C48.4796 55.6331 44.5596 57.7284 40.292 58.5773C36.0244 59.4262 31.6009 58.9905 27.581 57.3254C23.561 55.6602 20.1251 52.8404 17.7077 49.2225C15.2903 45.6047 14 41.3512 14 37" stroke="#1A1D2E" stroke-width="6" stroke-linecap="round"/>
<path opacity="0.35" d="M36 4C42.5268 4 48.907 5.93542 54.3338 9.5615C59.7606 13.1876 63.9903 18.3415 66.488 24.3714C68.9857 30.4014 69.6392 37.0366 68.3659 43.438C67.0926 49.8394 63.9496 55.7194 59.3345 60.3345C54.7194 64.9497 48.8393 68.0926 42.438 69.3659C36.0366 70.6392 29.4014 69.9857 23.3714 67.488C17.3415 64.9903 12.1876 60.7606 8.5615 55.3338C4.93542 49.907 3 43.5268 3 37" stroke="#E8445A" stroke-width="6" stroke-linecap="round"/>
</svg>
